<svg width="20" height="13" viewBox="0 0 20 13" fill="none" xmlns="http://www.w3.org/2000/svg">
  <path
    d="M10.8932 12.7273C4.05996 12.7273 0.162399 7.94977 0 0H3.42286C3.53529 5.83493 6.05871 8.30649 8.05746 8.81609V0H11.2805V5.0323C13.2542 4.81572 15.3279 2.52252 16.0275 0H19.2505C18.9869 1.30825 18.4614 2.54696 17.7069 3.63864C16.9524 4.73032 15.9852 5.65149 14.8657 6.34453C16.1153 6.97778 17.2191 7.87409 18.1041 8.97431C18.9891 10.0745 19.6353 11.3537 20 12.7273H16.4522C16.1248 11.5342 15.4594 10.4662 14.5394 9.65711C13.6194 8.84804 12.4858 8.33389 11.2805 8.17909V12.7273H10.8932Z"
    fill="#007844" />
</svg>
